<?xml version="1.0" encoding="utf-8"?>
<!-- Generator: Adobe Illustrator 26.5.0, SVG Export Plug-In . SVG Version: 6.00 Build 0)  -->
<svg version="1.1" id="レイヤー_1" xmlns="http://www.w3.org/2000/svg" xmlns:xlink="http://www.w3.org/1999/xlink" x="0px"
	 y="0px" viewBox="0 0 683 27" style="enable-background:new 0 0 683 27;" xml:space="preserve">
<style type="text/css">
	.st0{fill:#EFEFEF;}
	.st1{fill:#333333;}
	.st2{fill:#FFFFFF;}
	.st3{fill:#828282;}
</style>
<g>
	<g>
		<polygon class="st0" points="348.3,0 173.2,0 183.2,13.6 173.2,27 348.3,27 358.3,13.6 		"/>
	</g>
	<g>
		<polygon class="st0" points="518.5,0 351.3,0 361.3,13.6 351.3,27 518.5,27 528.5,13.6 		"/>
	</g>
	<polygon class="st1" points="170.2,0 0,0 0,27 170.2,27 180.2,13.6 	"/>
	<g>
		<polygon class="st0" points="521.5,0 531.5,13.6 521.5,27 683,27 683,0 		"/>
	</g>
	<polygon class="st2" points="351.3,0 348.3,0 358.3,13.6 348.3,27 351.3,27 361.3,13.6 	"/>
	<polygon class="st2" points="173.2,0 170.2,0 180.2,13.6 170.2,27 173.2,27 183.2,13.6 	"/>
	<polygon class="st2" points="521.5,0 518.5,0 528.5,13.6 518.5,27 521.5,27 531.5,13.6 	"/>
	<g>
		<g>
			<path class="st2" d="M55.4,8.8c0,0.3,0,0.8-0.1,1.2c0.9-0.1,1.9-0.3,2.7-0.5l0,1.3c-0.8,0.2-1.8,0.3-2.7,0.4c0,0.5,0,1.1,0,1.6
				c0,0.1,0,0.3,0,0.5c1-0.3,2-0.4,2.8-0.4c2,0,3.5,1.1,3.5,2.8c0,1.6-0.9,2.7-2.9,3.2C58.1,19,57.5,19,57,19.1l-0.5-1.4
				c0.5,0,1.1,0,1.6-0.1c1.1-0.2,2.1-0.8,2.1-1.9c0-1-0.9-1.6-2.2-1.6c-0.9,0-1.9,0.2-2.8,0.4c0,1.1,0.1,2.3,0.1,2.8
				c0,1.4-0.5,1.8-1.3,1.8c-1.2,0-3-1.1-3-2.4c0-1.1,1.4-2.3,3-3c0-0.3,0-0.6,0-0.8c0-0.5,0-1,0-1.5c-0.3,0-0.6,0-0.9,0
				c-0.8,0-1.3,0-1.8-0.1l0-1.3c0.8,0.1,1.3,0.1,1.8,0.1c0.3,0,0.6,0,0.9,0c0-0.6,0-1.1,0-1.3c0-0.3,0-0.8-0.1-1.1h1.5
				C55.5,8,55.4,8.4,55.4,8.8z M53.7,17.7c0.3,0,0.5-0.2,0.5-0.6c0-0.4,0-1.2,0-2.1c-1,0.5-1.7,1.2-1.7,1.7
				C52.4,17.2,53.2,17.7,53.7,17.7z M62.7,11.1l-0.7,1.1c-0.6-0.6-2.3-1.6-3.1-2l0.6-1C60.5,9.7,62.1,10.6,62.7,11.1z"/>
			<path class="st2" d="M66.5,11.7v0.1c0,2.3-0.2,5.7-1.6,7.8c-0.2-0.2-0.8-0.5-1.1-0.6c1.3-2.1,1.4-5.1,1.4-7.2V7.9h10v3.8H66.5z
				 M66.5,9v1.5H74V9H66.5z M75.4,13.2v6.5h-1.2v-0.4h-5.9v0.4h-1.2v-6.5h3.4v-1.4h1.2v1.4H75.4z M68.3,14.3v1.4h2.3v-1.4H68.3z
				 M68.3,18.1h2.3v-1.4h-2.3V18.1z M71.8,14.3v1.4h2.4v-1.4H71.8z M74.2,18.1v-1.4h-2.4v1.4H74.2z"/>
			<path class="st2" d="M80.1,9.1c-0.4,1.8-0.9,4.7-0.4,6.6c0.2-0.5,0.5-1.3,0.7-1.9l0.7,0.4c-0.4,1-0.7,2.4-0.9,3.1
				c0,0.2-0.1,0.5-0.1,0.6c0,0.1,0,0.3,0,0.5L79,18.8c-0.3-0.8-0.7-2.6-0.7-4.3c0-2.2,0.3-4.3,0.5-5.4c0.1-0.3,0.1-0.7,0.1-1
				l1.6,0.1C80.3,8.5,80.2,8.9,80.1,9.1z M87.1,8.8c0,0.3,0,1.1,0,1.9c0.8-0.1,1.5-0.2,2.1-0.3l0,1.4c-0.6,0.1-1.3,0.2-2.1,0.2
				c0,0.2,0,0.4,0,0.5c0,3.1-0.1,5.2-2.9,6.9l-1.2-1c0.5-0.2,1.1-0.6,1.4-0.9c1.3-1.2,1.4-2.6,1.4-5c0-0.1,0-0.3,0-0.4
				c-0.6,0-1.1,0-1.6,0c-0.6,0-1.5,0-2.1-0.1v-1.4c0.6,0.1,1.4,0.1,2.1,0.1c0.5,0,1.1,0,1.6,0c0-0.8,0-1.6-0.1-2
				c0-0.3-0.1-0.6-0.1-0.9h1.6C87.1,8.2,87.1,8.5,87.1,8.8z"/>
			<path class="st2" d="M101.4,18.3c0.4,0,0.5-0.3,0.6-1.9c0.3,0.2,0.8,0.4,1.1,0.5c-0.1,2.1-0.5,2.6-1.6,2.6h-1.8
				c-1.3,0-1.7-0.4-1.7-1.7v-3.6h-2.3c-0.3,2.5-1,4.5-4.1,5.6c-0.1-0.3-0.5-0.8-0.8-1.1c2.8-0.9,3.3-2.5,3.6-4.5h-3.3v-1.2h5.3v-2.5
				h-2.6c-0.3,0.7-0.7,1.4-1.1,2c-0.3-0.2-0.8-0.5-1.1-0.6c0.9-1.1,1.6-2.9,1.9-4.3l1.3,0.2c-0.1,0.5-0.3,1-0.5,1.5h2.1v-2h1.3v2
				h4.3v1.2h-4.3v2.5h5.3v1.2h-3.6v3.6c0,0.4,0.1,0.5,0.5,0.5H101.4z"/>
			<path class="st2" d="M111.1,19.1l-0.8-1.3c0.5,0,0.9-0.1,1.2-0.2c1.7-0.4,3.3-1.7,3.3-3.8c0-2-1.2-3.5-3.3-3.8
				c-0.2,1.2-0.4,2.5-0.8,3.8c-0.8,2.8-1.9,4.3-3.3,4.3s-2.6-1.5-2.6-3.7c0-3,2.6-5.6,6-5.6c3.2,0,5.3,2.3,5.3,5.1
				C116.2,16.7,114.4,18.6,111.1,19.1z M107.4,16.5c0.6,0,1.2-0.9,1.9-3c0.3-1.1,0.6-2.3,0.7-3.5c-2.4,0.4-3.8,2.5-3.8,4.2
				C106.2,15.8,106.9,16.5,107.4,16.5z"/>
			<path class="st2" d="M124.9,8c0,2.4,0.3,7.5,5.5,10.5c-0.3,0.2-0.8,0.8-1,1.1c-3.1-1.8-4.5-4.6-5.2-7.1c-1,3.3-2.7,5.6-5.2,7.1
				c-0.2-0.3-0.8-0.8-1.2-1c2.9-1.5,4.5-4.2,5.3-7.8l0.7,0.1c-0.1-0.6-0.1-1.1-0.2-1.6h-3.2V8H124.9z"/>
			<path class="st2" d="M143.1,10.1c0,0,0,0.4,0,0.6c-0.3,5.5-0.6,7.5-1.1,8.2c-0.4,0.4-0.7,0.6-1.2,0.6c-0.5,0.1-1.4,0-2.1,0
				c0-0.4-0.2-0.9-0.4-1.3c0.9,0.1,1.7,0.1,2.1,0.1c0.3,0,0.5,0,0.6-0.2c0.5-0.4,0.7-2.3,1-6.7h-4.2c-0.2,2.8-1.1,6.1-5,8.3
				c-0.2-0.3-0.7-0.8-1-1c3.5-2,4.4-4.9,4.6-7.3h-4.2v-1.3h4.3V9.8V7.3h1.3v2.5v0.3H143.1z"/>
		</g>
		<g>
			<g>
				<path class="st2" d="M32.6,19.1h-2.4V9.9L28.6,11V8.7l1.9-1.3h2.1V19.1z"/>
				<path class="st2" d="M39.3,19.1h-2.7v-2.7h2.7V19.1z"/>
			</g>
		</g>
	</g>
	<g>
		<g>
			<path class="st3" d="M218.9,13.3c-0.5-0.5-1.6-1.1-2.4-1.4l0.7-0.9c0.8,0.3,1.9,0.9,2.5,1.3L218.9,13.3z M220.1,15.1
				c-0.6,1.4-1.5,3-2.2,4.3l-1.1-0.8c0.7-1,1.6-2.8,2.3-4.3L220.1,15.1z M219.6,9.8c-0.5-0.5-1.5-1.1-2.4-1.5l0.7-0.9
				c0.8,0.3,1.9,0.9,2.4,1.4L219.6,9.8z M225.4,14.5c0.6,1.9,1.9,3.4,3.7,4.1c-0.3,0.2-0.7,0.7-0.9,1.1c-1.9-0.9-3.1-2.5-3.9-4.6
				c-0.4,1.8-1.4,3.4-3.7,4.6c-0.2-0.3-0.7-0.7-1-0.9c2.3-1.2,3.2-2.7,3.6-4.3h-2.9v-1.2h3.1c0-0.5,0.1-1,0.1-1.5v-1.3h-2.5V9.4h2.5
				V7.3h1.2v2.1h3.2v4h1.1v1.2H225.4z M224.6,11.9c0,0.5,0,1,0,1.4h2.1v-2.8h-2V11.9z"/>
			<path class="st3" d="M232.4,13.3c-0.5-0.5-1.6-1.1-2.4-1.4l0.7-0.9c0.8,0.3,1.9,0.9,2.5,1.3L232.4,13.3z M233.7,15.1
				c-0.7,1.4-1.5,3-2.3,4.3l-1.1-0.8c0.7-1,1.6-2.8,2.4-4.3L233.7,15.1z M233.1,9.8c-0.5-0.5-1.5-1.1-2.4-1.5l0.7-0.9
				c0.8,0.3,1.9,0.9,2.4,1.4L233.1,9.8z M240.9,9.7c-0.4,0.7-1,1.3-1.7,1.8c1,0.4,2.1,0.6,3.3,0.8c-0.3,0.3-0.6,0.7-0.7,1.1
				c-1.4-0.3-2.7-0.6-3.8-1.2c-0.9,0.5-1.9,0.8-3,1.1h1.1V14h3.8v-0.7h1.2v6.3h-1.2v-2.4h-4.1c-0.3,0.9-0.7,1.8-1.6,2.6
				c-0.2-0.2-0.7-0.5-1-0.7c1.5-1.2,1.7-3,1.7-4.2v-1.6c-0.3,0.1-0.6,0.1-1,0.2c-0.1-0.3-0.4-0.8-0.6-1.1c1.3-0.2,2.5-0.5,3.6-0.9
				c-0.7-0.5-1.3-1.1-1.9-1.8h-1.2V8.6h3.5V7.3h1.3v1.3h3.6v1.1H240.9z M239.9,15h-3.8c0,0.4,0,0.7-0.1,1.1h3.9V15z M236.5,9.7
				c0.5,0.5,1,0.9,1.6,1.2c0.6-0.4,1-0.8,1.4-1.2H236.5z"/>
			<path class="st3" d="M251.3,13.5c0,0.9-0.7,1.6-1.6,1.6s-1.6-0.7-1.6-1.6c0-0.9,0.7-1.6,1.6-1.6S251.3,12.6,251.3,13.5z"/>
			<path class="st3" d="M257.2,7.8h6v1.1h-1.8v1.4h1.5v9.2h-1v-0.7h-3.5v0.9h-1v-9.4h1.6V8.9h-1.9V7.8z M258.5,15.6h3.5v-1.1
				c0,0-0.1,0-0.1,0h-0.6c-0.6,0-0.7-0.2-0.7-0.9v-2.4h-0.6v1.1c0,0.8-0.2,1.8-0.9,2.6c-0.1-0.1-0.4-0.4-0.5-0.4
				c0.7-0.6,0.8-1.5,0.8-2.1v-1.1h-0.8V15.6z M261.9,17.7v-1.2h-3.5v1.2H261.9z M260.6,8.9h-0.7v1.4h0.7V8.9z M261.9,11.3h-0.8v2.4
				c0,0.2,0,0.2,0.1,0.2h0.4c0.1,0,0.2,0,0.2,0c0,0,0,0,0.1,0.1V11.3z M267.6,18.3c0.6,0,0.6-0.3,0.7-2.2c0.3,0.2,0.8,0.4,1.1,0.5
				c-0.1,2.2-0.5,2.8-1.8,2.8h-2.1c-1.3,0-1.8-0.4-1.8-1.8V12h3.9V9.1h-3.9V7.9h5.2v6.2h-1.2v-0.9h-2.7v4.5c0,0.5,0.1,0.6,0.7,0.6
				H267.6z"/>
			<path class="st3" d="M273.6,16.8c0.6,0.9,1.7,1.4,3.2,1.4c1.5,0.1,4.5,0,6.2-0.1c-0.1,0.3-0.4,0.9-0.4,1.3
				c-1.5,0.1-4.2,0.1-5.8,0c-1.7-0.1-2.9-0.5-3.7-1.6c-0.6,0.6-1.3,1.1-2,1.7l-0.6-1.3c0.6-0.4,1.3-0.9,2-1.4v-3.2h-1.7v-1.2h3V16.8
				z M273,10.5c-0.4-0.6-1.4-1.5-2.3-2.1l0.9-0.8c0.9,0.6,1.9,1.4,2.3,2.1L273,10.5z M279.4,13.6c0.6,1.5,1.7,2.6,3.4,3
				c-0.3,0.2-0.6,0.7-0.8,1.1c-1.6-0.6-2.7-1.6-3.4-3.1c-0.5,1.1-1.5,2.2-3.4,3.1c-0.1-0.3-0.5-0.7-0.8-0.9c2.2-0.9,3-2,3.3-3.1
				h-3.3v-1.1h3.4v-0.2v-1.4h-3V9.7h1.5c-0.2-0.6-0.6-1.4-1.1-2l1.1-0.4c0.5,0.6,1,1.5,1.2,2.1l-0.7,0.3h3.3l-0.8-0.3
				c0.4-0.6,0.9-1.5,1.2-2.2l1.3,0.4c-0.4,0.7-0.9,1.5-1.4,2.1h2v1.1H279v1.5v0.1h3.8v1.1H279.4z"/>
			<path class="st3" d="M289.6,10.7c0,0.7-0.1,1.3-0.2,2h5.3c0,0,0,0.4,0,0.6c-0.2,3.8-0.5,5.3-1.1,5.8c-0.4,0.4-0.7,0.5-1.3,0.5
				c-0.5,0-1.4,0-2.3,0c0-0.4-0.2-0.9-0.4-1.2c0.9,0.1,1.9,0.1,2.3,0.1c0.3,0,0.5,0,0.6-0.2c0.4-0.3,0.6-1.6,0.8-4.4h-4.1
				c-0.5,2.3-1.6,4.5-4.3,5.8c-0.2-0.3-0.6-0.8-0.9-1c3.7-1.7,4-5,4.2-8h-4V9.5h5.3V7.2h1.3v2.3h5.4v1.2H289.6z"/>
			<path class="st3" d="M300.1,13.3c-0.6-0.4-1.7-1-2.6-1.3l0.6-1c0.9,0.3,2.1,0.8,2.6,1.2L300.1,13.3z M301.2,15.2
				c-0.6,1.4-1.5,3-2.3,4.3l-1.1-0.8c0.7-1,1.7-2.7,2.4-4.3L301.2,15.2z M300.8,9.7c-0.5-0.5-1.7-1.1-2.6-1.5l0.7-0.9
				c0.9,0.3,2,0.9,2.6,1.4L300.8,9.7z M308.9,19.7c-0.1-0.3-0.3-0.7-0.5-1.1c-2.5,0.2-5.2,0.4-7,0.5l-0.2-1.3l1.1-0.1
				c0.5-1.1,1.1-2.6,1.5-3.8h-2.6v-1.2h3.6v-2.2h-2.9V9.3h2.9V7.3h1.3v2.1h3.1v1.2h-3.1v2.2h3.7V14h-4.6c-0.5,1.2-1.1,2.6-1.6,3.7
				c1.3-0.1,2.7-0.1,4.1-0.2c-0.4-0.6-0.8-1.2-1.3-1.8l1.1-0.6c1,1.2,2.1,2.8,2.5,3.9L308.9,19.7z"/>
			<path class="st3" d="M313.8,16.8c0.6,1,1.7,1.4,3.2,1.4c1.6,0.1,4.8,0,6.5-0.1c-0.1,0.3-0.3,0.8-0.4,1.2c-1.6,0.1-4.5,0.1-6.1,0
				c-1.7-0.1-2.9-0.5-3.7-1.6c-0.5,0.6-1.1,1.1-1.7,1.7l-0.6-1.2c0.5-0.4,1.1-0.9,1.7-1.4v-3.3h-1.5v-1.2h2.7V16.8z M313,10.5
				c-0.3-0.7-1.2-1.6-1.9-2.3l1-0.6c0.8,0.6,1.6,1.6,2,2.2L313,10.5z M323.3,15.8h-9v-1h2.3v-1.1h-1.9v-0.9h1.9V12h1.2v0.9h1.9V12
				h1.2v0.9h1.9v0.9h-1.9v1.1h2.4V15.8z M317.2,8.6h-2.7V7.7h3.8v2.4h-2.5v0.5c0,0.3,0.1,0.3,0.5,0.3h1.3c0.3,0,0.4-0.1,0.4-0.6
				c0.2,0.1,0.6,0.3,0.9,0.3c-0.1,0.9-0.4,1.1-1.2,1.1h-1.5c-1.1,0-1.4-0.2-1.4-1.2V9.3h2.5V8.6z M318.2,16.2
				c-0.7,0.7-1.8,1.3-2.7,1.7c-0.2-0.2-0.6-0.6-0.9-0.8c0.9-0.3,1.9-0.8,2.5-1.3L318.2,16.2z M317.8,14.9h1.9v-1.1h-1.9V14.9z
				 M321.6,8.6h-2.7V7.7h3.8v2.4h-2.5v0.5c0,0.3,0.1,0.3,0.5,0.3h1.4c0.3,0,0.4-0.1,0.4-0.6c0.2,0.1,0.6,0.3,0.9,0.4
				c-0.1,0.9-0.4,1.1-1.2,1.1h-1.6c-1.1,0-1.4-0.2-1.4-1.2V9.3h2.5V8.6z M321.9,18c-0.5-0.5-1.5-1.1-2.4-1.6l0.9-0.5
				c1,0.5,2.1,1.1,2.8,1.6L321.9,18z"/>
			<path class="st3" d="M329.6,14.2c-0.6,0.1-1.2,0.3-1.8,0.4v3.5c0,0.7-0.1,1-0.6,1.2c-0.4,0.2-1,0.2-2.1,0.2
				c0-0.3-0.2-0.8-0.4-1.2c0.7,0,1.3,0,1.5,0c0.2,0,0.3-0.1,0.3-0.3V15c-0.6,0.2-1.3,0.3-1.8,0.4l-0.3-1.2c0.6-0.1,1.3-0.3,2.1-0.4
				v-2.7h-1.9V9.9h1.9V7.3h1.2v2.7h1.7v1.2h-1.7v2.4c0.6-0.1,1.2-0.3,1.7-0.4L329.6,14.2z M333.9,13.6c0.5,2.3,1.5,4.2,3.2,5
				c-0.3,0.2-0.7,0.8-0.9,1.1c-2-1.1-3-3.3-3.6-6.1h-1.4c-0.1,2-0.5,4.5-2.1,6.1c-0.2-0.2-0.7-0.7-1-0.9c1.7-1.7,1.8-4.3,1.8-6.2V8
				h6.4v5.6H333.9z M331.3,9.2v3.2h3.8V9.2H331.3z"/>
		</g>
		<g>
			<g>
				<path class="st3" d="M202.1,19.1h-7.2v-1.5l3.9-4.6c0.7-0.9,1.1-1.6,1.1-2.3c0-1-0.7-1.4-1.5-1.4c-0.8,0-1.4,0.5-1.5,1.4h-2.1
					c0-2,1.7-3.4,3.7-3.4c2.1,0,3.7,1.5,3.7,3.4c0,1.5-1,2.8-1.8,3.6l-2.4,2.8h4V19.1z"/>
				<path class="st3" d="M206.8,19.1h-2.7v-2.7h2.7V19.1z"/>
			</g>
		</g>
	</g>
	<g>
		<g>
			<path class="st3" d="M415.1,13.3c-0.6-0.4-1.7-1-2.6-1.4l0.6-1c0.9,0.3,2,0.8,2.6,1.3L415.1,13.3z M416.5,15.2
				c-0.7,1.4-1.6,3-2.4,4.3l-1.1-0.8c0.7-1,1.8-2.7,2.5-4.3L416.5,15.2z M415.8,9.8c-0.5-0.5-1.6-1.1-2.5-1.5l0.7-0.9
				c0.9,0.3,2,0.9,2.6,1.4L415.8,9.8z M424.9,18v1.2h-8.7V18h3.7v-2.9h-2.8v-1.2h2.8v-2.6h-3.3v-1.2h4.4c-0.7-0.6-1.9-1.4-2.9-2
				l0.8-1c1.1,0.5,2.5,1.4,3.1,2.1l-0.7,0.9h3.2v1.2h-3.4v2.6h2.9v1.2h-2.9V18H424.9z"/>
			<path class="st3" d="M436.3,10.7c-0.8,2.1-1.8,3.8-3.1,5.2c1.4,1.2,3.2,2,5.3,2.5c-0.3,0.3-0.7,0.9-0.9,1.2
				c-2.2-0.6-4-1.5-5.5-2.8c-1.5,1.2-3.2,2.1-5.4,2.8c-0.1-0.3-0.5-0.9-0.8-1.2c2.1-0.6,3.8-1.4,5.2-2.5c-1.3-1.4-2.3-3.2-3-5.3h-2
				V9.5h5.4V7.3h1.3v2.2h5.5v1.2H436.3z M429.5,10.7c0.6,1.7,1.5,3.1,2.7,4.3c1.1-1.2,2-2.6,2.6-4.3H429.5z"/>
			<path class="st3" d="M451.2,18.1c0,0.7-0.2,1.1-0.7,1.3c-0.5,0.2-1.3,0.2-2.5,0.2c-0.1-0.4-0.3-0.9-0.4-1.3c0.9,0,1.8,0,2.1,0
				s0.3-0.1,0.3-0.3v-7.4h-3.6c0,0.5-0.1,1.1-0.2,1.7c1.2,1.1,2.8,2.6,3.6,3.6l-1,0.8c-0.6-0.8-1.8-2.1-2.9-3.2
				c-0.5,1.2-1.5,2.4-3.1,3.4c-0.2-0.3-0.6-0.7-0.9-0.9c2.8-1.5,3.3-3.6,3.3-5.3h-3.5v8.9h-1.3V9.5h4.8V7.3h1.3v2.3h4.8V18.1z"/>
			<path class="st3" d="M459.8,11.6c1.4,1.7,3.6,3.2,5.7,4c-0.3,0.3-0.6,0.8-0.8,1.1c-0.6-0.3-1.1-0.6-1.7-0.9v3.8h-1.3v-0.4h-5v0.4
				h-1.2v-3.7c-0.5,0.3-1.1,0.6-1.7,0.9c-0.1-0.3-0.5-0.8-0.7-1.1c2.2-0.9,4.4-2.7,5.4-4.2H459.8z M454.8,11h-1.2V8.4h5V7.3h1.3v1.2
				h5V11h-1.3V9.6h-8.8V11z M458.1,10.4c-0.9,1.2-2.2,2.3-3.4,3c-0.2-0.3-0.6-0.8-0.9-1c1.2-0.6,2.4-1.5,3.1-2.4L458.1,10.4z
				 M461.9,15.1c-1.1-0.7-2-1.6-2.7-2.3c-0.6,0.8-1.5,1.6-2.5,2.3H461.9z M461.7,18.1v-1.9h-5v1.9H461.7z M461.1,10
				c1.2,0.7,2.7,1.8,3.4,2.5l-0.9,0.9c-0.7-0.8-2.2-1.9-3.4-2.6L461.1,10z"/>
			<path class="st3" d="M478.9,19.1h-5.3v0.6h-1.2v-6.1c-0.2,0.2-0.4,0.3-0.5,0.4c-0.1-0.2-0.4-0.5-0.7-0.8V18h-2.5v1.1h-1v-3.9
				c-0.2,0.4-0.4,0.7-0.6,1c-0.1-0.3-0.5-0.9-0.7-1.2c1-1.4,1.5-3.5,1.8-5.8h-1.4V8.1h4.8v0.4h2.7c0.1-0.4,0.3-0.9,0.4-1.3l1.2,0.2
				c-0.1,0.4-0.2,0.7-0.3,1.1h3.4v2.3h-1.1V9.6H475c-0.3,0.7-0.6,1.3-1,1.9h1.4c0.2-0.5,0.4-1.1,0.6-1.5l1.2,0.3
				c-0.2,0.4-0.4,0.9-0.6,1.2h2v1.1h-2.2v1.2h2v0.9h-2v1.2h2v0.9h-2v1.2h2.6V19.1z M470.1,13.1h-1.5v3.8h1.5V13.1z M471.2,12.9
				c1.1-0.8,1.9-1.9,2.6-3.2h-1.2v1.3h-1.1V9.3h-2.1c-0.1,0.9-0.3,1.9-0.6,2.8h2.4V12.9z M475.2,12.6h-1.6v1.2h1.6V12.6z
				 M475.2,14.7h-1.6v1.2h1.6V14.7z M473.6,18.1h1.6v-1.2h-1.6V18.1z"/>
			<path class="st3" d="M484.8,10.5H480v-1h4.8V10.5z M484.5,18.9h-2.8v0.6h-1.1v-4.5h3.9V18.9z M484.4,12.3h-3.8v-1h3.8V12.3z
				 M480.6,13.1h3.8v1h-3.8V13.1z M484.4,8.7h-3.8v-1h3.8V8.7z M481.6,16v1.9h1.8V16H481.6z M484.5,18.3c0.6-0.7,0.9-1.8,1-2.9
				l1,0.3c-0.1,1.2-0.4,2.5-1.1,3.2L484.5,18.3z M485.9,9.4c0.5,0.1,1,0.3,1.5,0.6c0.1-0.4,0.2-0.7,0.3-1.1h-2.2V7.8h6.5
				c0,0,0,0.4,0,0.5c-0.1,3.1-0.3,4.3-0.6,4.7c-0.2,0.3-0.5,0.4-0.9,0.4c-0.3,0-0.9,0-1.5,0c0-0.4-0.1-0.8-0.3-1.1
				c0.6,0.1,1.1,0.1,1.3,0.1c0.2,0,0.3,0,0.4-0.1c0.2-0.2,0.3-1.1,0.4-3.4h-2c-0.1,0.5-0.2,1.1-0.4,1.6c0.6,0.3,1.1,0.6,1.4,0.8
				l-0.6,1c-0.3-0.2-0.8-0.5-1.2-0.8c-0.5,0.9-1.2,1.7-2.4,2.3c-0.1-0.3-0.5-0.7-0.7-0.9c1-0.5,1.7-1.2,2.1-1.9
				c-0.5-0.3-1.1-0.5-1.6-0.7L485.9,9.4z M489.3,18.5c0.3,0,0.4-0.2,0.4-1.5c0.2,0.2,0.7,0.4,1,0.5c-0.1,1.7-0.4,2.1-1.3,2.1h-1.3
				c-1.1,0-1.4-0.4-1.4-1.5V15h1.1v3.1c0,0.3,0.1,0.4,0.4,0.4H489.3z M487.8,13.1c0.9,0.4,1.9,1.2,2.4,1.7l-0.8,0.8
				c-0.5-0.6-1.5-1.3-2.3-1.8L487.8,13.1z M491.1,15.2c0.7,1,1.3,2.3,1.5,3.2l-1.1,0.5c-0.2-0.9-0.7-2.3-1.4-3.3L491.1,15.2z"/>
		</g>
		<g>
			<g>
				<path class="st3" d="M390.1,12h0.9c1,0,1.6-0.5,1.6-1.5c0-0.8-0.6-1.4-1.5-1.4c-0.8,0-1.4,0.5-1.5,1.3h-2.1
					c0.1-1.9,1.7-3.2,3.7-3.2c2.1,0,3.7,1.5,3.7,3.2c0,1.3-0.8,2.1-1.6,2.6c1,0.5,1.8,1.4,1.8,2.8c0,1.9-1.3,3.4-3.7,3.4
					c-2.5,0-3.9-1.4-4-3.3h2.1c0.1,0.7,0.7,1.3,1.7,1.3c1,0,1.5-0.7,1.5-1.5c0-1-0.6-1.6-1.8-1.6h-0.9V12z"/>
				<path class="st3" d="M399.6,19.1H397v-2.7h2.7V19.1z"/>
			</g>
		</g>
	</g>
	<g>
		<g>
			<path class="st3" d="M591.1,13.3c-0.6-0.4-1.7-1-2.6-1.4l0.6-1c0.9,0.3,2,0.8,2.6,1.3L591.1,13.3z M592.5,15.2
				c-0.7,1.4-1.6,3-2.4,4.3l-1.1-0.8c0.7-1,1.8-2.7,2.5-4.3L592.5,15.2z M591.8,9.8c-0.5-0.5-1.6-1.1-2.5-1.5l0.7-0.9
				c0.9,0.3,2,0.9,2.6,1.4L591.8,9.8z M601,18v1.2h-8.7V18h3.7v-2.9h-2.8v-1.2h2.8v-2.6h-3.3v-1.2h4.4c-0.7-0.6-1.9-1.4-2.9-2l0.8-1
				c1.1,0.5,2.5,1.4,3.1,2.1l-0.7,0.9h3.2v1.2h-3.4v2.6h2.9v1.2h-2.9V18H601z"/>
			<path class="st3" d="M612.3,10.7c-0.8,2.1-1.8,3.8-3.1,5.2c1.4,1.2,3.2,2,5.3,2.5c-0.3,0.3-0.7,0.9-0.9,1.2
				c-2.2-0.6-4-1.5-5.5-2.8c-1.5,1.2-3.2,2.1-5.4,2.8c-0.1-0.3-0.5-0.9-0.8-1.2c2.1-0.6,3.8-1.4,5.2-2.5c-1.3-1.4-2.3-3.2-3-5.3h-2
				V9.5h5.4V7.3h1.3v2.2h5.5v1.2H612.3z M605.5,10.7c0.6,1.7,1.5,3.1,2.7,4.3c1.1-1.2,2-2.6,2.6-4.3H605.5z"/>
			<path class="st3" d="M626.1,18.3c0.5,0,0.6-0.2,0.6-1.7c0.3,0.2,0.8,0.4,1.1,0.5c-0.1,1.9-0.5,2.4-1.6,2.4h-1.9
				c-1.4,0-1.7-0.4-1.7-1.6v-3.1h-2.1c-0.3,2.4-1.1,4.1-4.3,5c-0.1-0.3-0.5-0.9-0.7-1.1c2.9-0.7,3.5-2,3.7-3.8h-3.4v-1.2h11.9v1.2
				h-3.8v3.1c0,0.4,0.1,0.5,0.6,0.5H626.1z M617.3,11.6h-1.3v-3h5V7.3h1.3v1.4h5v3H626V9.8h-8.7V11.6z M618.1,12.2v-1.1h7.1v1.1
				H618.1z"/>
			<path class="st3" d="M640.5,8.9c-1.2,1.4-3,3-4.6,4v5.2c0,0.8-0.2,1.1-0.8,1.3c-0.6,0.2-1.5,0.2-2.8,0.2
				c-0.1-0.4-0.3-0.9-0.5-1.3c1.1,0,2.1,0,2.4,0c0.3,0,0.4-0.1,0.4-0.3v-6.3h0.8c1-0.6,2-1.5,2.7-2.3h-8.3V8.2h9.4l0.3-0.1
				L640.5,8.9z"/>
		</g>
		<g>
			<g>
				<path class="st3" d="M569.2,7.4l-3.7,8h2.2v-3h2.4v3h1.1v2h-1.1v1.7h-2.4v-1.7h-5.2v-1.6l4-8.4H569.2z"/>
				<path class="st3" d="M575.3,19.1h-2.7v-2.7h2.7V19.1z"/>
			</g>
		</g>
	</g>
</g>
</svg>
